<?xml version="1.0" encoding="utf-8"?>
<!-- Generator: Adobe Illustrator 27.0.0, SVG Export Plug-In . SVG Version: 6.00 Build 0)  -->
<svg version="1.1" id="Layer_1" xmlns="http://www.w3.org/2000/svg" xmlns:xlink="http://www.w3.org/1999/xlink" x="0px" y="0px"
	 viewBox="0 0 24 24" style="enable-background:new 0 0 24 24;" xml:space="preserve">
<style type="text/css">
	.st0{fill:#FFFFFF;}
</style>
<g>
	<g>
		<path class="st0" d="M16.4,19.3c-0.1,0-0.3,0-0.4-0.2l-1.5-1.5c-0.2-0.2-0.2-0.6,0-0.8c0.2-0.2,0.6-0.2,0.8,0l1.1,1.1l2.6-2.6
			c0.2-0.2,0.6-0.2,0.8,0c0.2,0.2,0.2,0.6,0,0.8l-3,3C16.7,19.3,16.6,19.3,16.4,19.3z"/>
	</g>
	<g>
		<path class="st0" d="M18.4,11.7c0.2-1.5,0.2-2.9,0.1-3.8c0-1.4,0-3.8,0-3.8c0-0.3-0.2-0.6-0.6-0.6c-4.5-0.1-7.8-2.2-7.8-2.2
			c-0.2-0.1-0.4-0.1-0.6,0c0,0-3.3,2.1-7.8,2.2c-0.3,0-0.6,0.3-0.6,0.6c0,0,0,2.4,0,3.8c0,3.6-0.1,11.1,8.5,14.8c0.1,0,0.1,0,0.2,0
			c0.1,0,0.1,0,0.2,0c1.2-0.5,2.2-1.1,3.2-1.8c1,1.1,2.5,1.8,4.1,1.8c3.1,0,5.6-2.5,5.6-5.6C22.9,14.5,21,12.3,18.4,11.7z M9.9,21.5
			c-7.7-3.4-7.6-10-7.6-13.6c0-1,0-2.4,0-3.2C6.1,4.5,8.9,3,9.9,2.5c0.9,0.5,3.7,1.9,7.6,2.2c0,0.8,0,2.2,0,3.2c0,0.9,0,2.3-0.1,3.7
			c-3,0-5.5,2.5-5.5,5.6c0,1,0.3,2,0.8,2.8C11.7,20.6,10.8,21.1,9.9,21.5z M17.3,21.6c-2.4,0-4.4-2-4.4-4.4s2-4.4,4.4-4.4
			s4.4,2,4.4,4.4C21.8,19.6,19.7,21.6,17.3,21.6z"/>
	</g>
	<g>
		<path class="st0" d="M4.5,7.4L4.5,7.4C4.2,7.4,3.9,7.2,4,6.8V6.7c0-0.3,0.3-0.6,0.6-0.6c0.3,0,0.6,0.3,0.6,0.6v0.2
			C5.1,7.2,4.9,7.4,4.5,7.4z"/>
	</g>
	<g>
		<path class="st0" d="M5.3,14.6c-0.2,0-0.5-0.1-0.6-0.4c-0.5-1.4-0.7-3-0.8-5.1c0-0.3,0.2-0.6,0.6-0.6c0.3,0,0.6,0.2,0.6,0.6
			c0,2,0.3,3.5,0.7,4.8c0.1,0.3,0,0.7-0.3,0.7C5.4,14.6,5.4,14.6,5.3,14.6z"/>
	</g>
</g>
</svg>
