<?xml version="1.0" encoding="utf-8"?>
<!-- Generator: Adobe Illustrator 28.0.0, SVG Export Plug-In . SVG Version: 6.00 Build 0)  -->
<svg version="1.1" id="Layer_1" xmlns="http://www.w3.org/2000/svg" xmlns:xlink="http://www.w3.org/1999/xlink" x="0px" y="0px"
	 viewBox="0 0 1886.5 868.1" style="enable-background:new 0 0 1886.5 868.1;" xml:space="preserve">
<style type="text/css">
	.st0{fill:#4F4F4F;}
	.st1{fill:#E64E85;}
</style>
<g>
	<path class="st0" d="M1008.9,584.9c-118.4,0-236.7,0-355.1,0c-9.8,0-19.4-1.4-28.7-4.5c-19.4-6.6-29.6-20.7-29.6-41.1
		c0-25.6,0-51.2,0-76.8c0-6.3,0-12.6,0-18.9c0-4.5,0-4.6-4.7-4.3c-5.6,0.3-11.3,0.7-16.8,1.9c-42.6,9.4-71.7,34.5-87.4,75.1
		c-4.1,10.7-5.4,21.9-6,33.2c-0.6,10.1-5.2,17.9-13.3,23.8c-6.1,4.4-12.9,7.2-20.1,8.9c-15,3.5-30.2,3.5-45.4,1.6
		c-8.1-1-16-3.2-23.3-7.1c-7.3-3.9-13-9.3-16.8-16.6c-1.3-2.6-2-5.2-2-8.1c0.1-14.8,0-29.5,0.1-44.3c0.1-12.3-1.1-24.5-3.8-36.5
		c-9.4-41.9-32.1-74.2-69.4-95.8c-24.2-14-50.5-20.5-78.3-21.1c-16.8-0.4-33.6-0.1-50.5-0.1c-14.2,0-28.2,1.4-42,4.8
		c-38,9.4-68.9,29.2-90.6,62.2C11,442.5,3.7,466.4,1.3,491.8c-0.8,6-1.3,12.1-1.3,18.1c0,16.4-0.2,32.8,0.5,49.2
		c0.6,20.3,6.3,39.4,15.2,57.4c16.5,33.1,42.6,55.9,76.5,70c20.2,8.4,41.4,11.6,63,12.2c16.6,0.4,33.3,0,50,0.1
		c11,0.1,21.9-1.1,32.7-3.3c8.2-1.7,8.2-1.6,8.2,6.9c0,52.6,0,105.3,0,157.9c0,2.6-0.6,5.4,1.4,7.7h0.9c0.3-0.7,0.9-0.8,1.5-1
		c6.3-1.9,12.5-4.1,18.6-6.7c54.5-23.5,83.8-65.4,90.3-123.9c1.4-12.7,0.6-25.4,0.8-38.2c0-1.7-0.5-3.4,0.5-5.2
		c1.4,0.2,2.8,0.4,4.2,0.6c11.4,2.3,22.9,3.6,34.6,3.4c14.4-0.2,28.9,0,43.4-0.1c28.5-0.1,54.9-7.5,79.2-22.5
		c3.7-2.3,7.4-4.8,10.9-7.4c1.5-1.1,2.7-1.4,4.1-0.1c0.6,0.5,1.3,0.9,1.9,1.3c29,18.4,60.7,27.8,94.8,28.5
		c18.2,0.4,36.5,0.1,54.7,0.1c68.2,0,136.4,0,204.6,0c16.7,0,33.3-1.2,49.5-5.6c20-5.4,37.2-15.1,49.7-32
		c5.8-7.7,10.2-16.2,13.7-25.1c5.2-13.4,8.2-27.3,9.9-41.6C1016.6,584.9,1016.8,584.9,1008.9,584.9z M246.8,540.6
		c-0.3,18.8-9.7,32.2-27.2,39c-8.9,3.4-18.2,5-27.6,5.3c-10.5,0.3-21,0.6-31.5-0.6c-7.7-0.9-15.2-2.5-22.3-5.6
		c-14.8-6.5-23.4-17.7-24.6-33.9c-1-12.8-1.1-25.8,0-38.6c1.3-15.5,9.6-26.6,23.7-33.1c9.1-4.2,18.9-6.1,28.8-6.4
		c11.8-0.4,23.6-0.9,35.3,0.7c8.1,1.1,16.1,2.9,23.4,6.6c14.4,7.4,22.1,19.1,22,35.5c0,5,0,10,0,15.1
		C246.8,529.9,246.8,535.2,246.8,540.6z"/>
	<path class="st1" d="M1690.9,446.5c-2.3-21.7-6.6-42.9-13.3-63.5c-9.9-30.4-24.4-58.5-43-84.5c-12.9-18-27.8-34-44.1-48.9
		c-15.6-14.3-32.7-26.5-51-37c-3.1-1.8-4.4-4-4.4-7.6c0.1-21.8,0.1-43.7,0-65.5c0-3.2,0.9-5.7,3-8.1c3.5-3.9,5.2-8.6,5.4-13.8
		c0.4-7-0.4-13.8-2-20.6c-6.4-27.4-22.4-48.2-44.9-64.1c-30.9-21.9-65.6-32.3-103.3-32.7c-0.4,0-0.8,0-1.1,0
		c-5.9,0.3-11.9-0.5-17.7,0.4c-6.4,0.6-12.8,1.1-19.2,1.9c-25.5,3.2-49.6,10.9-71.8,24.1c-16.4,9.8-30.5,22.1-41.3,38
		c-10.1,14.9-15.6,31.4-16.4,49.4c-0.2,5.5,0.3,11.2,4.2,15c4.4,4.2,4.6,8.7,4.1,14c-0.2,2.3-0.1,4.7-0.1,7.1
		c0,19.5-0.1,39,0.1,58.5c0,3.2-1,5-3.8,6.6c-85.4,51-140,137.5-148.8,236.5c-3.5,38.8,0.5,76.9,11.7,114.2
		c37.8,126.3,154,216,288.1,217.6c4.7,0,4.6-0.5,4.6,4.6v68.4c0,3.9,0,7.9,0,11.8h0.9c3.5-0.9,7.1-1.1,10.6-2
		c33.2-8.6,64.7-21.3,94.6-38c38.9-21.8,72.7-49.8,102.3-83c22.3-25,40.8-52.6,56-82.4c10-19.6,18-40.1,24.7-61.1
		c10.6-33.5,16.1-67.8,17.6-102.8C1693.2,481.3,1692.7,463.8,1690.9,446.5z M1249.1,201.3c0-18.9,0-37.7,0-56.6
		c0-1.3,0.1-2.5,0.1-3.8c0-1.7,0.6-2.5,2.4-2.8c1.7-0.2,3.4-0.6,5-1.3c8.7-3.9,13.7-10.7,13.9-20.1c0.3-14.8,6.6-26.6,16.6-36.8
		c12.7-13,28.2-21.4,45.4-26.8c40.2-12.4,79.9-11.1,118.6,5.9c13.2,5.8,24.9,14.1,34.2,25.2c7.9,9.5,12.4,20.2,12.7,32.7
		c0.2,10.2,7.3,18.6,17.2,21c3.7,0.9,3.9,0.9,3.9,4.3c0.1,19.5,0.1,39,0.1,58.4c0,0.5-0.2,0.9-0.5,1.9
		c-42.7-20.5-87.7-30.6-134.8-30.3c-47,0.3-91.7,10.9-133.7,31.7C1248.8,203.2,1249.1,202.2,1249.1,201.3z M1565.2,533.3
		c-29.8,58.9-73.8,103.8-133.1,133.3c-22.5,11.2-46.3,18.6-71.3,21.9c-32.9,4.3-65,1.5-95.4-12.4c-42.1-19.3-69-51.9-82.2-95.9
		c-7.6-25.3-9.1-51.2-6.2-77.4c5.5-48.5,24.2-91.7,53.2-130.6c31-41.5,69.8-73.4,117.6-93.7c26.1-11.1,53.4-17.6,81.8-18.1
		c40.5-0.7,77.3,10.2,108.5,37c24,20.6,39.2,46.7,47.5,77c4.5,16.5,6.3,33.3,6.5,49.4C1591.7,462.9,1582.4,499.2,1565.2,533.3z"/>
	<path d="M1882.5,172.9c1.2-0.8,2.7-0.3,4-0.8c0,174.8,0,349.5,0,524.3c-0.3,0-0.6,0-0.9,0.1c-1.4-1.5-1.5-3.4-1.5-5.3
		c-0.1-2.2,0-4.4,0-6.6c0-166.9,0-333.7,0-500.6C1884.1,180.3,1884.3,176.5,1882.5,172.9z"/>
	<path class="st0" d="M866.7,379.7c-46.7,0-93.3,0-140,0c-1.1,0-2.2,0-3.3,0c-3.5-0.1-3.6-0.1-3.6-3.7c0-32.1,0-64.1,0-96.2
		c0-3.8,0.1-3.8,4.9-3.8c56.7,0,113.5,0,170.2,0c6.6,0,6.6,0,6.6-6.8c0-29.5,0-59.1,0-88.6c0-5.4-0.5-5.2,5-5.2
		c33.8,0,67.6,0,101.4,0c0.9,0,1.9,0,2.8,0c1.8-0.1,2.5,0.8,2.4,2.6c-0.1,1.1,0,2.2,0,3.3c0,64.3,0,128.5,0,192.8
		c0,6.2,0.8,5.6-5.4,5.6C960.6,379.7,913.7,379.7,866.7,379.7z"/>
	<path class="st0" d="M495.6,277.6c31.3,0,62.5,0,93.8,0c6,0,5.2-0.4,5.2,5.4c0,30.9,0,61.9,0,92.8c0,0.8-0.1,1.6,0,2.4
		c0.3,2.6-1,3.3-3.3,3.1c-0.9-0.1-1.9,0-2.8,0c-62,0-124.1,0-186.1,0c-6.9,0-6.2,0.8-6.2-6.4c0-30.3,0-60.6,0-90.9
		c0-1.3,0-2.5,0-3.8c-0.1-1.7,0.5-2.7,2.4-2.6c1.2,0.1,2.5,0,3.8,0C433.4,277.6,464.5,277.6,495.6,277.6z"/>
	<path class="st0" d="M1882.5,172.9c2,0.1,3.3,0.7,3.1,3.1c-0.1,1.4,0,2.8,0,4.2c0,172.1,0,344.1,0,516.2c-1.6,0.1-3.1,0.2-4.7,0.2
		c-33.6,0-67.2,0-100.9,0c-6.4,0-5.7,0.5-5.7-5.4c0-132,0-263.9,0-395.9c0-18.1,1.5-36.1,6.5-53.6c4-13.8,10-26.5,20.7-36.4
		c12.7-11.8,27.2-20.7,44-25.6C1857.6,176.2,1869.9,173.4,1882.5,172.9z"/>
</g>
</svg>
